<?xml version="1.0" encoding="UTF-8" standalone="no"?>
<svg
   width="338.85645"
   height="173.54115"
   viewBox="0 0 89.651356 45.913837"
   version="1.1"
   id="svg63"
   sodipodi:docname="certified.svg"
   inkscape:version="1.1.2 (0a00cf5339, 2022-02-04, custom)"
   xmlns:inkscape="http://www.inkscape.org/namespaces/inkscape"
   xmlns:sodipodi="http://sodipodi.sourceforge.net/DTD/sodipodi-0.dtd"
   xmlns="http://www.w3.org/2000/svg"
   xmlns:svg="http://www.w3.org/2000/svg">
  <sodipodi:namedview
     id="namedview65"
     pagecolor="#505050"
     bordercolor="#eeeeee"
     borderopacity="1"
     inkscape:pageshadow="0"
     inkscape:pageopacity="0"
     inkscape:pagecheckerboard="0"
     showgrid="false"
     inkscape:zoom="0.98632815"
     inkscape:cx="118.11485"
     inkscape:cy="117.60792"
     inkscape:window-width="1512"
     inkscape:window-height="944"
     inkscape:window-x="0"
     inkscape:window-y="36"
     inkscape:window-maximized="1"
     inkscape:current-layer="svg63"
     fit-margin-top="0"
     fit-margin-left="0"
     fit-margin-right="0"
     fit-margin-bottom="0"
     inkscape:showpageshadow="false"
     showborder="false" />
  <defs
     id="defs31">
    <filter
       id="f"
       x="-0.11304447"
       y="-0.11589311"
       width="1.2260889"
       height="1.2317862"
       color-interpolation-filters="sRGB">
      <feGaussianBlur
         stdDeviation=".412"
         id="feGaussianBlur25" />
    </filter>
    <filter
       id="g"
       x="-0.056557799"
       y="-0.060222535"
       width="1.1131156"
       height="1.1204451"
       color-interpolation-filters="sRGB">
      <feGaussianBlur
         stdDeviation=".412"
         id="feGaussianBlur28" />
    </filter>
  </defs>
  <path
     id="rect916"
     style="color:#000000;opacity:0.8;fill:#ff1744;fill-opacity:1;fill-rule:evenodd;stroke-width:0.999999;stroke-linecap:round;stroke-linejoin:round;-inkscape-stroke:none;paint-order:stroke fill markers"
     d="m 5.9833832,12.31054 c -3.0310025,0.01019 -5.50522271,2.501113 -5.49502611,5.532118 l 0.0443251,13.181416 C 0.5428689,34.055077 3.0337951,36.5293 6.0647973,36.519107 L 74.503372,36.288962 c -0.0085,-0.05636 -0.01428,-0.113051 -0.01765,-0.169959 l -0.0083,-2.476199 -68.4215337,0.230089 C 4.4448061,33.878309 3.184777,32.62622 3.179364,31.015163 L 3.1350389,17.833747 c -0.00542,-1.611059 1.2461549,-2.871592 2.8572114,-2.877009 L 71.515956,14.736407 c 0.4572,-0.401209 0.991863,-0.653264 1.543815,-0.831462 0.27778,-0.709221 0.690341,-1.358907 1.312068,-1.824379 z"
     sodipodi:nodetypes="sssscccsssscccs" />
  <path
     d="m 74.613114,20.625046 -0.002,0.011 c 0.0024,0.707998 0.155658,1.382487 0.434715,1.99555 a 5.136,5.136 0 0 0 1.178478,1.626048 c 0.495558,0.462336 1.086817,0.836349 1.741685,1.093149 0.653868,0.2578 1.372354,0.399385 2.125347,0.396855 0.754992,-0.0025 1.472513,-0.147953 2.124633,-0.409148 a 5.497,5.497 0 0 0 1.7323,-1.104831 5.135,5.135 0 0 0 1.164504,-1.635925 4.848,4.848 0 0 0 0.423276,-1.998436 c -3.7e-4,-0.02208 -0.01415,-0.04196 -0.01417,-0.06494 0.0025,2.829008 -2.429794,5.121199 -5.44478,5.131338 -2.986983,0.01004 -5.415567,-2.240802 -5.463983,-5.041655 z"
     fill="#808080"
     id="path1145" />
  <path
     d="m 194.38717,-23.801136 a 2.24,2.24 0 0 1 -1.228,0.267 2.344,2.344 0 0 1 -1.16,-0.392 2.141,2.141 0 0 1 -0.784,0.876 c -0.34,0.216 -0.748,0.344 -1.192,0.344 h -0.016 c -0.444,0 -0.852,-0.128 -1.193,-0.344 a 2.14,2.14 0 0 1 -0.784,-0.876 2.353,2.353 0 0 1 -1.16,0.39 2.274,2.274 0 0 1 -1.229,-0.265 c 0.2,0.109 0.411,0.167 0.626,0.207 v 8.2 l 3.746,-3.747 3.749,3.747 v -8.179 c 0.217,-0.026 0.426,-0.082 0.626,-0.228 z"
     filter="url(#f)"
     opacity="0.3"
     id="path1147"
     transform="rotate(-0.192672,15448.29,32690.312)" />
  <path
     d="m 84.463891,27.67996 a 2.24,2.24 0 0 1 -1.227097,0.270128 2.344,2.344 0 0 1 -1.161312,-0.388094 2.141,2.141 0 0 1 -0.781045,0.879632 c -0.339276,0.216142 -0.746844,0.345513 -1.190836,0.348007 l -0.01603,2e-6 c -0.443996,0.0015 -0.852416,-0.125137 -1.194146,-0.339988 a 2.14,2.14 0 0 1 -0.786944,-0.874358 2.353,2.353 0 0 1 -1.158678,0.393899 2.274,2.274 0 0 1 -1.229888,-0.259872 c 0.200363,0.107331 0.411556,0.164618 0.626693,0.203895 l 0.02758,8.199955 3.73338,-3.758576 3.761574,3.733371 -0.0275,-8.178954 c 0.216916,-0.02673 0.425726,-0.08243 0.625231,-0.230103 z"
     id="path1149"
     style="fill:#00e676;fill-opacity:1" />
  <path
     d="m 75.671095,13.47945 c -0.767594,0.419583 -1.166923,1.216929 -1.089316,1.991672 -0.821013,-0.0042 -1.678929,0.31965 -2.114531,1.034118 -0.44257,0.723491 -0.349602,1.606184 0.146542,2.24152 -0.758922,0.321554 -1.290551,1.028345 -1.287751,1.860341 0.0014,0.415996 0.136685,0.800542 0.366765,1.120771 0.23008,0.320229 0.552942,0.577144 0.932477,0.73487 -0.483853,0.63863 -0.577903,1.515952 -0.130455,2.242452 0.440392,0.711522 1.300668,1.089631 2.121435,1.017872 -0.0724,0.777245 0.332291,1.57489 1.101677,1.986304 0.384697,0.206707 0.812971,0.28727 1.228887,0.259866 a 2.355,2.355 0 0 0 1.158677,-0.3939 c 0.173198,0.355419 0.44623,0.659505 0.787949,0.874356 0.340725,0.214855 0.75015,0.341479 1.194146,0.339988 l 0.01603,-2e-6 c 0.443997,-0.0015 0.850561,-0.130863 1.190837,-0.348007 0.339271,-0.217141 0.610247,-0.522055 0.781045,-0.879631 0.33877,0.228861 0.74523,0.363496 1.161311,0.388093 0.417084,0.0246 0.845812,-0.05784 1.227098,-0.270128 0.766594,-0.41858 1.165909,-1.218927 1.088303,-1.993671 0.82202,0.0052 1.678937,-0.317648 2.115543,-1.032119 0.442575,-0.722492 0.348569,-1.60619 -0.146542,-2.241521 0.379459,-0.161277 0.700591,-0.419359 0.927511,-0.741124 0.228931,-0.320769 0.361632,-0.707217 0.360223,-1.123218 -0.0028,-0.831995 -0.540171,-1.535193 -1.300238,-1.851638 0.484857,-0.638634 0.578907,-1.515955 0.131458,-2.242456 -0.440387,-0.710521 -1.30168,-1.091629 -2.122437,-1.019867 0.07339,-0.777251 -0.332292,-1.572892 -1.101674,-1.983306 a 2.342,2.342 0 0 0 -2.387576,0.131029 2.18,2.18 0 0 0 -1.982082,-1.211342 l -0.01501,6.5e-5 A 2.18,2.18 0 0 0 78.0595,13.595474 c -0.678536,-0.455721 -1.624825,-0.540538 -2.389399,-0.114965 z m 4.37252,1.932306 c 3.01098,-0.01013 5.470693,2.278617 5.480215,5.111599 l -0.002,0.01001 c 1.22e-4,0.02302 0.01316,0.04296 0.01318,0.06595 0.0024,0.709995 -0.14735,1.384502 -0.421287,1.998426 a 5.135,5.135 0 0 1 -1.164505,1.635925 5.498,5.498 0 0 1 -1.733289,1.105836 5.754,5.754 0 0 1 -2.124642,0.407147 c -0.752994,0.0025 -1.471475,-0.138053 -2.125343,-0.395855 a 5.519,5.519 0 0 1 -1.742689,-1.093146 5.137,5.137 0 0 1 -1.177474,-1.626051 4.838,4.838 0 0 1 -0.434715,-1.995549 l 0.002,-0.01001 c -1.22e-4,-0.02302 -0.01419,-0.04296 -0.01426,-0.06696 -0.0095,-2.833983 2.425744,-5.137184 5.444727,-5.147336 z"
     id="path1153"
     style="fill:#00e676;fill-opacity:1" />
  <path
     style="color:#000000;fill:#00e676;stroke-linecap:round;stroke-linejoin:round;-inkscape-stroke:none"
     d="m 81.535505,18.180844 -2.902298,2.921886 -0.554603,-0.552826 a 0.88422501,0.88422501 0 0 0 -1.249995,0.0042 0.88422501,0.88422501 0 0 0 0.0042,1.251947 l 1.181695,1.173766 a 0.88431343,0.88431343 0 0 0 1.249986,-0.0042 l 3.5252,-3.548981 a 0.88422501,0.88422501 0 0 0 -0.0042,-1.249993 0.88422501,0.88422501 0 0 0 -1.249996,0.0042 z"
     id="path7899" />
  <text
     xml:space="preserve"
     style="font-size:11.9803px;line-height:1.25;font-family:sans-serif;letter-spacing:0px;word-spacing:0px;fill:#ff1744;fill-opacity:0.8;stroke-width:0.299509;stroke:#ff1744;stroke-opacity:1"
     x="5.3594832"
     y="28.430014"
     id="text1613"
     transform="rotate(-0.192672)"><tspan
       sodipodi:role="line"
       id="tspan1611"
       style="font-style:normal;font-variant:normal;font-weight:500;font-stretch:normal;font-family:Montserrat;-inkscape-font-specification:'Montserrat Medium';fill:#ff1744;fill-opacity:0.8;stroke-width:0.299509;stroke:#ff1744;stroke-opacity:1"
       x="5.3594832"
       y="28.430014">CERTIFIED</tspan></text>
</svg>
