<?xml version="1.0" encoding="UTF-8" standalone="no"?>
<!-- Created with Inkscape (http://www.inkscape.org/) -->

<svg
   version="1.2"
   width="1244.5977"
   height="345.45499"
   id="svg2"
   inkscape:version="1.2.1 (9c6d41e410, 2022-07-14, custom)"
   sodipodi:docname="inline-logo-light.svg"
   xmlns:inkscape="http://www.inkscape.org/namespaces/inkscape"
   xmlns:sodipodi="http://sodipodi.sourceforge.net/DTD/sodipodi-0.dtd"
   xmlns="http://www.w3.org/2000/svg"
   xmlns:svg="http://www.w3.org/2000/svg"
   xmlns:rdf="http://www.w3.org/1999/02/22-rdf-syntax-ns#"
   xmlns:cc="http://creativecommons.org/ns#"
   xmlns:dc="http://purl.org/dc/elements/1.1/">
  <sodipodi:namedview
     pagecolor="#585858"
     bordercolor="#424242"
     borderopacity="1"
     objecttolerance="10"
     gridtolerance="10"
     guidetolerance="10"
     inkscape:pageopacity="0"
     inkscape:pageshadow="2"
     inkscape:window-width="1728"
     inkscape:window-height="1083"
     id="namedview15"
     showgrid="false"
     inkscape:showpageshadow="false"
     fit-margin-top="0"
     fit-margin-left="0"
     fit-margin-right="0"
     fit-margin-bottom="0"
     inkscape:zoom="0.76825989"
     inkscape:cx="830.44814"
     inkscape:cy="306.53689"
     inkscape:window-x="0"
     inkscape:window-y="0"
     inkscape:window-maximized="1"
     inkscape:current-layer="text594"
     inkscape:pagecheckerboard="0"
     showguides="true"
     inkscape:guide-bbox="true"
     inkscape:deskcolor="#585858">
    <sodipodi:guide
       position="-31.223499,272.72768"
       orientation="0,-1"
       id="guide831"
       inkscape:locked="false" />
    <sodipodi:guide
       position="200.00003,218.18227"
       orientation="0,-1"
       id="guide833"
       inkscape:locked="false" />
    <sodipodi:guide
       position="200.00003,200.00044"
       orientation="0,-1"
       id="guide835"
       inkscape:locked="false" />
    <inkscape:grid
       type="xygrid"
       id="grid837"
       originx="72.727301"
       originy="72.727309" />
    <sodipodi:guide
       position="218.18187,72.727657"
       orientation="0,-1"
       id="guide669"
       inkscape:locked="false" />
    <sodipodi:guide
       position="1171.8704,218.18227"
       orientation="1,0"
       id="guide687"
       inkscape:locked="false" />
    <sodipodi:guide
       position="72.727352,200.00044"
       orientation="1,0"
       id="guide697"
       inkscape:locked="false" />
    <sodipodi:guide
       position="272.72729,200.00045"
       orientation="1,0"
       id="guide699"
       inkscape:locked="false" />
    <sodipodi:guide
       position="1090.0521,169.56555"
       orientation="1,0"
       id="guide701"
       inkscape:locked="false" />
    <sodipodi:guide
       position="1099.1431,218.18227"
       orientation="1,0"
       id="guide703"
       inkscape:locked="false" />
    <sodipodi:guide
       position="290.90911,254.54592"
       orientation="0,-1"
       id="guide766"
       inkscape:locked="false" />
    <sodipodi:guide
       position="475.69854,133.2872"
       orientation="1,0"
       id="guide768"
       inkscape:locked="false" />
    <sodipodi:guide
       position="493.88037,200.00044"
       orientation="1,0"
       id="guide772"
       inkscape:locked="false" />
    <sodipodi:guide
       position="715.99384,153.94776"
       orientation="1,0"
       id="guide774"
       inkscape:locked="false" />
    <sodipodi:guide
       position="599.42725,157.23309"
       orientation="1,0"
       id="guide855"
       inkscape:locked="false" />
    <sodipodi:guide
       position="617.60907,209.09135"
       orientation="1,0"
       id="guide859"
       inkscape:locked="false" />
    <sodipodi:guide
       position="743.26666,200.00044"
       orientation="1,0"
       id="guide861"
       inkscape:locked="false" />
    <sodipodi:guide
       position="762.86822,163.44579"
       orientation="1,0"
       id="guide863"
       inkscape:locked="false" />
    <sodipodi:guide
       position="781.05005,206.01431"
       orientation="1,0"
       id="guide867"
       inkscape:locked="false" />
    <sodipodi:guide
       position="886.59693,148.07922"
       orientation="1,0"
       id="guide869"
       inkscape:locked="false" />
    <sodipodi:guide
       position="904.77875,209.09135"
       orientation="1,0"
       id="guide873"
       inkscape:locked="false" />
    <sodipodi:guide
       position="984.50531,209.14562"
       orientation="1,0"
       id="guide875"
       inkscape:locked="false" />
  </sodipodi:namedview>
  <defs
     id="defs4" />
  <metadata
     id="metadata7">
    <rdf:RDF>
      <cc:Work
         rdf:about="">
        <dc:format>image/svg+xml</dc:format>
        <dc:type
           rdf:resource="http://purl.org/dc/dcmitype/StillImage" />
      </cc:Work>
    </rdf:RDF>
  </metadata>
  <g
     aria-label="®"
     id="text594"
     style="font-size:140.705px;line-height:1.25;letter-spacing:0px;word-spacing:0px;fill:#4f4f4f;stroke-width:3.51762"
     transform="matrix(1.0181865,0,0,1.0181865,48.075445,72.726926)"
     inkscape:label="Manjaro Logo">
    <path
       d="m 1068.0536,3.576355e-4 q 9.6945,0 17.8342,4.8472420645 8.2312,4.7557847 12.987,12.9869503 4.8472,8.139709 4.8472,17.834193 0,9.877399 -4.8472,18.108564 -4.8473,8.231166 -13.0784,12.986951 -8.1397,4.664327 -17.7428,4.664327 -9.7859,0 -18.0171,-4.664327 -8.1397,-4.755785 -12.9869,-12.895493 -4.7558,-8.231166 -4.7558,-18.200022 0,-9.694484 4.7558,-17.834193 4.7558,-8.2311656 12.8955,-12.9869503 8.2311,-4.8472420645 18.1085,-4.8472420645 z M 1067.8707,63.929078 q 7.6825,0 14.1759,-3.84121 6.585,-3.841211 10.3347,-10.334686 3.8412,-6.493475 3.8412,-14.175897 0,-7.682421 -3.8412,-14.175896 -3.8412,-6.493476 -10.3347,-10.334686 -6.4934,-3.841211 -14.1759,-3.841211 -7.6824,0 -14.1759,3.841211 -6.4934,3.84121 -10.3346,10.334686 -3.8413,6.493475 -3.8413,14.175896 0,7.682422 3.7498,14.175897 3.8412,6.493475 10.3347,10.334686 6.4935,3.84121 14.2673,3.84121 z m 14.999,-13.078407 q 0.7317,1.280403 0.7317,2.377892 0,1.280404 -0.9146,2.10352 -0.9145,0.823117 -2.4693,0.823117 -1.0975,0 -2.0121,-0.457287 -0.9146,-0.457287 -1.3718,-1.188946 l -8.4141,-14.175897 h -0.8231 -5.7619 v 12.346749 q 0,1.554775 -1.006,2.560807 -0.9146,0.914574 -2.5608,0.914574 -1.6462,0 -2.6523,-0.914574 -1.006,-1.006032 -1.006,-2.560807 v -35.8513 q 0,-1.554776 1.0975,-2.46935 1.0975,-1.006031 2.8352,-1.006031 h 9.0543 q 6.5849,0 10.7919,3.749753 4.2985,3.749753 4.2985,9.603027 0,3.84121 -1.9206,6.950762 -1.9206,3.018094 -5.213,4.847242 z m -21.0352,-16.919619 h 6.3106 q 3.2925,0 5.2131,-1.920605 2.012,-2.012063 2.012,-5.304529 0,-3.292467 -2.012,-5.121615 -1.9206,-1.829148 -5.2131,-1.829148 h -6.3106 z"
       style="font-weight:bold;font-size:91.4574px;font-family:Comfortaa;-inkscape-font-specification:'Comfortaa Bold';baseline-shift:super;fill:#ececec"
       id="path296"
       inkscape:label="R" />
    <path
       id="path849"
       style="font-style:normal;font-variant:normal;font-weight:bold;font-stretch:normal;font-size:193px;line-height:125%;font-family:Comfortaa;-inkscape-font-specification:'Comfortaa Bold';letter-spacing:0px;word-spacing:0px;fill:#ececec;fill-opacity:1;stroke:none"
       d="M 753.06836 91.693359 C 749.86421 91.693495 747.13081 92.824356 744.86914 95.085938 C 742.60738 97.347784 741.47651 100.08118 741.47656 103.28516 C 741.47651 106.48937 742.60738 109.22278 744.86914 111.48438 C 747.13081 113.7462 749.86421 114.87707 753.06836 114.87695 C 756.27241 114.87707 759.00581 113.7462 761.26758 111.48438 C 763.52924 109.22278 764.66011 106.48937 764.66016 103.28516 C 764.66011 100.08118 763.52924 97.347783 761.26758 95.085938 C 759.00581 92.824356 756.27241 91.693495 753.06836 91.693359 z M 753.06836 122.03906 C 750.36682 122.03917 748.04325 123.01345 746.0957 124.96094 C 744.21091 126.8458 743.26755 129.16939 743.26758 131.93359 L 743.26758 227.11523 C 743.26755 230.69629 742.57744 234.05599 741.19531 237.19727 C 739.81313 240.33852 737.92835 243.07193 735.54102 245.39648 C 733.21645 247.78383 730.48305 249.63767 727.3418 250.95703 C 724.20051 252.33917 720.83886 253.02928 717.25781 253.0293 C 714.43066 253.02928 712.07421 253.94171 710.18945 255.76367 C 708.36751 257.64841 707.45703 260.0029 707.45703 262.83008 C 707.45703 265.65719 708.36751 268.01364 710.18945 269.89844 C 712.07421 271.78317 714.43066 272.72652 717.25781 272.72656 C 723.47753 272.72652 729.35219 271.50093 734.88086 269.05078 C 740.40946 266.66337 745.24606 263.39645 749.39258 259.25 C 753.53901 255.10349 756.80595 250.26495 759.19336 244.73633 C 761.64351 239.20768 762.86908 233.33496 762.86914 227.11523 L 762.86914 131.93359 C 762.86908 129.16938 761.8948 126.8458 759.94727 124.96094 C 758.06245 123.01345 755.76981 122.03917 753.06836 122.03906 z M 337.07422 123.11523 C 334.37271 123.11533 332.04914 124.08962 330.10156 126.03711 C 328.21678 127.92197 327.27343 130.21462 327.27344 132.91602 L 327.27344 218.76758 C 327.27343 221.53191 328.21678 223.8864 330.10156 225.83398 C 332.04913 227.71874 334.40558 228.66211 337.16992 228.66211 C 339.8714 228.66211 342.16404 227.71874 344.04883 225.83398 C 345.99639 223.8864 346.97068 221.53191 346.9707 218.76758 L 346.9707 165.14453 C 346.97068 162.06615 347.53513 159.17618 348.66602 156.47461 C 349.85967 153.77319 351.46222 151.4187 353.47266 149.4082 C 355.54586 147.33505 357.93324 145.7325 360.63477 144.60156 C 363.33622 143.40796 366.22619 142.81064 369.30469 142.81055 C 372.38307 142.81064 375.27305 143.40796 377.97461 144.60156 C 380.67604 145.79533 383.03249 147.39788 385.04297 149.4082 C 387.05332 151.4187 388.65391 153.77319 389.84766 156.47461 C 391.04127 159.17618 391.6386 162.06615 391.63867 165.14453 L 391.63867 218.76758 C 391.6386 221.53191 392.58196 223.8864 394.4668 225.83398 C 396.4143 227.71874 398.76881 228.66211 401.5332 228.66211 C 404.23461 228.66211 406.52921 227.71874 408.41406 225.83398 C 410.36155 223.8864 411.33389 221.53191 411.33398 218.76758 L 411.33398 165.14453 C 411.33389 162.06615 411.9003 159.17618 413.03125 156.47461 C 414.22484 153.77319 415.82738 151.4187 417.83789 149.4082 C 419.91103 147.39788 422.2984 145.79533 425 144.60156 C 427.70139 143.40796 430.59136 142.81064 433.66992 142.81055 C 436.81108 142.81064 439.73198 143.40796 442.43359 144.60156 C 445.19779 145.79533 447.58517 147.4288 449.5957 149.50195 C 451.60599 151.51244 453.17564 153.8689 454.30664 156.57031 C 455.50018 159.27188 456.09753 162.12898 456.09766 165.14453 L 456.09766 218.76758 C 456.09753 221.53191 457.04088 223.8864 458.92578 225.83398 C 460.81041 227.71874 463.13398 228.66211 465.89844 228.66211 C 468.59978 228.66211 470.89243 227.71874 472.77734 225.83398 C 474.72477 223.8864 475.69906 221.53191 475.69922 218.76758 L 475.69922 165.14453 C 475.69906 159.42749 474.5682 154.02448 472.30664 148.93555 C 470.10759 143.78394 467.09197 139.32431 463.25977 135.55469 C 459.4901 131.72243 455.03045 128.7068 449.87891 126.50781 C 444.78991 124.2462 439.38692 123.11533 433.66992 123.11523 C 420.97907 123.11533 410.26584 128.11046 401.5332 138.09961 C 397.38665 133.07366 392.55005 129.33506 387.02148 126.88477 C 381.49278 124.37186 375.58717 123.11533 369.30469 123.11523 C 360.76038 123.11533 353.12659 125.34614 346.4043 129.80664 C 345.77602 127.79632 344.61423 126.19378 342.91797 125 C 341.22166 123.74359 339.2731 123.11533 337.07422 123.11523 z M 546.6543 123.11523 C 532.07875 123.11533 519.63928 128.26703 509.33594 138.57031 C 499.03255 148.87376 493.88085 161.31325 493.88086 175.88867 C 493.88085 190.46422 499.03255 202.90368 509.33594 213.20703 C 519.63928 223.51041 532.07875 228.66211 546.6543 228.66211 C 552.93678 228.66211 558.84238 227.6569 564.37109 225.64648 C 569.89965 223.63608 575.02043 220.7461 579.73242 216.97656 L 579.73242 218.86133 C 579.73233 221.56283 580.67374 223.8864 582.55859 225.83398 C 584.50608 227.71874 586.86254 228.66211 589.62695 228.66211 C 592.32834 228.66211 594.62098 227.71874 596.50586 225.83398 C 598.45333 223.8864 599.42762 221.56283 599.42773 218.86133 L 599.42773 175.88867 C 599.42762 161.31325 594.27593 148.87376 583.97266 138.57031 C 573.54355 128.26703 561.10408 123.11533 546.6543 123.11523 z M 627.50391 123.11523 C 624.73957 123.11533 622.38312 124.08962 620.43555 126.03711 C 618.55077 127.9848 617.60937 130.30837 617.60938 133.00977 L 617.60938 218.76758 C 617.60937 221.53191 618.55077 223.8864 620.43555 225.83398 C 622.38312 227.71874 624.73957 228.66211 627.50391 228.66211 C 630.20538 228.66211 632.49803 227.71874 634.38281 225.83398 C 636.33038 223.8864 637.30466 221.53191 637.30469 218.76758 L 637.30469 172.30664 C 637.30466 168.28587 638.05857 164.48541 639.56641 160.9043 C 641.13701 157.32332 643.27308 154.18205 645.97461 151.48047 C 648.67607 148.77906 651.78642 146.6739 655.30469 145.16602 C 658.88569 143.59547 662.71708 142.81064 666.80078 142.81055 C 670.82155 142.81064 674.62201 143.59547 678.20312 145.16602 C 681.78411 146.73673 684.89447 148.8728 687.5332 151.57422 C 690.23462 154.21297 692.37069 157.32332 693.94141 160.9043 C 695.51195 164.48541 696.2968 168.28587 696.29688 172.30664 L 696.29688 218.76758 C 696.2968 221.53191 697.24015 223.8864 699.125 225.83398 C 701.0725 227.71874 703.42895 228.66211 706.19336 228.66211 C 708.89476 228.66211 711.1874 227.71874 713.07227 225.83398 C 715.01974 223.8864 715.99404 221.53191 715.99414 218.76758 L 715.99414 172.30664 C 715.99404 165.52156 714.67371 159.14623 712.03516 153.17773 C 709.39639 147.14657 705.8163 141.93107 701.29297 137.5332 C 696.76945 133.07269 691.52302 129.55446 685.55469 126.97852 C 679.64902 124.40278 673.39739 123.11533 666.80078 123.11523 C 655.49215 123.11533 645.66044 126.35135 637.30469 132.82227 C 637.30466 130.24653 636.33038 127.9848 634.38281 126.03711 C 632.49803 124.08962 630.20538 123.11533 627.50391 123.11523 z M 833.82422 123.11523 C 819.24866 123.11533 806.8092 128.26703 796.50586 138.57031 C 786.20247 148.87376 781.05078 161.31325 781.05078 175.88867 C 781.05078 190.46422 786.20247 202.90368 796.50586 213.20703 C 806.8092 223.51041 819.24866 228.66211 833.82422 228.66211 C 840.1067 228.66211 846.0123 227.6569 851.54102 225.64648 C 857.06957 223.63608 862.19035 220.7461 866.90234 216.97656 L 866.90234 218.86133 C 866.90224 221.56283 867.84561 223.8864 869.73047 225.83398 C 871.67796 227.71874 874.03245 228.66211 876.79688 228.66211 C 879.49826 228.66211 881.79287 227.71874 883.67773 225.83398 C 885.6252 223.8864 886.59755 221.56283 886.59766 218.86133 L 886.59766 175.88867 C 886.59755 161.31325 881.44585 148.87376 871.14258 138.57031 C 860.71347 128.26703 848.274 123.11533 833.82422 123.11523 z M 914.67578 123.11523 C 911.91144 123.11533 909.555 124.08962 907.60742 126.03711 C 905.72265 127.92197 904.77929 130.21462 904.7793 132.91602 L 904.7793 218.86133 C 904.77929 221.56283 905.72265 223.8864 907.60742 225.83398 C 909.555 227.71874 911.91144 228.66211 914.67578 228.66211 C 917.37726 228.66211 919.66991 227.71874 921.55469 225.83398 C 923.50226 223.8864 924.47653 221.56283 924.47656 218.86133 L 924.47656 175.88867 C 924.47653 171.30248 925.32321 166.99941 927.01953 162.97852 C 928.77861 158.95776 931.13505 155.47045 934.08789 152.51758 C 937.10347 149.50203 940.62171 147.14559 944.64258 145.44922 C 948.66336 143.69019 952.96642 142.81064 957.55273 142.81055 C 962.20175 142.81064 966.50678 143.59547 970.46484 145.16602 C 972.03541 145.85717 973.41757 146.2032 974.61133 146.20312 C 975.99341 146.2032 977.28084 145.95191 978.47461 145.44922 C 979.66821 144.9467 980.70435 144.25659 981.58398 143.37695 C 982.46345 142.43466 983.1555 141.36564 983.6582 140.17188 C 984.22355 138.97828 984.50577 137.69084 984.50586 136.30859 C 984.50577 133.6072 983.62622 131.40733 981.86719 129.71094 C 980.108 128.01475 977.87719 126.6964 975.17578 125.75391 C 972.53703 124.74881 969.61614 124.05675 966.41211 123.67969 C 963.27077 123.30284 960.31699 123.11534 957.55273 123.11523 C 951.27013 123.11534 945.36453 124.12054 939.83594 126.13086 C 934.30726 128.14137 929.18844 131.03135 924.47656 134.80078 L 924.47656 132.91602 C 924.47653 130.21462 923.50226 127.92197 921.55469 126.03711 C 919.66991 124.08962 917.37726 123.11534 914.67578 123.11523 z M 1037.2793 123.11523 C 1022.7038 123.11533 1010.2642 128.26703 999.96094 138.57031 C 989.65751 148.87376 984.50586 161.31325 984.50586 175.88867 C 984.50586 190.46422 989.65751 202.90368 999.96094 213.20703 C 1010.2642 223.51041 1022.7038 228.66211 1037.2793 228.66211 C 1051.7291 228.66211 1064.1686 223.51041 1074.5977 213.20703 C 1084.9009 203.02933 1090.0526 190.58987 1090.0527 175.88867 C 1089.9897 168.60099 1088.6714 161.84674 1086.0957 155.62695 C 1083.5825 149.40731 1079.7493 143.72209 1074.5977 138.57031 C 1064.1686 128.26703 1051.7291 123.11534 1037.2793 123.11523 z M 546.6543 142.81055 C 551.24049 142.81064 555.54356 143.69019 559.56445 145.44922 C 563.58521 147.20842 567.07251 149.59579 570.02539 152.61133 C 573.04093 155.62703 575.39737 159.14526 577.09375 163.16602 C 578.85277 167.12408 579.73233 171.36531 579.73242 175.88867 C 579.73233 180.41215 578.85277 184.68429 577.09375 188.70508 C 575.39737 192.66311 573.04093 196.14848 570.02539 199.16406 C 567.07251 202.17972 563.58521 204.56708 559.56445 206.32617 C 555.54356 208.08531 551.24049 208.96682 546.6543 208.9668 C 542.00516 208.96682 537.66921 208.08531 533.64844 206.32617 C 529.62757 204.56708 526.14221 202.21259 523.18945 199.25977 C 520.23663 196.24418 517.88017 192.72593 516.12109 188.70508 C 514.42478 184.68429 513.57614 180.41215 513.57617 175.88867 C 513.57614 171.36531 514.42478 167.09316 516.12109 163.07227 C 517.88017 159.05151 520.23663 155.56421 523.18945 152.61133 C 526.14221 149.59579 529.62757 147.20842 533.64844 145.44922 C 537.66921 143.69019 542.00516 142.81064 546.6543 142.81055 z M 833.82422 142.81055 C 838.41041 142.81064 842.71542 143.69019 846.73633 145.44922 C 850.75707 147.20842 854.24244 149.59579 857.19531 152.61133 C 860.21084 155.62703 862.56729 159.14526 864.26367 163.16602 C 866.02269 167.12408 866.90224 171.36531 866.90234 175.88867 C 866.90224 180.41215 866.02269 184.68429 864.26367 188.70508 C 862.56729 192.66311 860.21084 196.14848 857.19531 199.16406 C 854.24244 202.17972 850.75707 204.56708 846.73633 206.32617 C 842.71542 208.08531 838.41041 208.96682 833.82422 208.9668 C 829.17508 208.96682 824.84109 208.08531 820.82031 206.32617 C 816.79944 204.56708 813.31213 202.21259 810.35938 199.25977 C 807.40655 196.24418 805.05009 192.72593 803.29102 188.70508 C 801.5947 184.68429 800.74803 180.41215 800.74805 175.88867 C 800.74803 171.36531 801.5947 167.09316 803.29102 163.07227 C 805.05009 159.05151 807.40655 155.56421 810.35938 152.61133 C 813.31213 149.59579 816.79944 147.20842 820.82031 145.44922 C 824.84109 143.69019 829.17508 142.81064 833.82422 142.81055 z M 1037.2793 142.81055 C 1041.8655 142.81064 1046.1705 143.69019 1050.1914 145.44922 C 1054.2122 147.20842 1057.6975 149.59579 1060.6504 152.61133 C 1063.6659 155.62703 1066.0224 159.14526 1067.7188 163.16602 C 1069.4777 167.12408 1070.3573 171.36531 1070.3574 175.88867 C 1070.3573 180.41215 1069.4777 184.68429 1067.7188 188.70508 C 1066.0224 192.66311 1063.6659 196.14848 1060.6504 199.16406 C 1057.6975 202.17972 1054.2122 204.56708 1050.1914 206.32617 C 1046.1705 208.08531 1041.8655 208.96682 1037.2793 208.9668 C 1032.6302 208.96682 1028.2962 208.08531 1024.2754 206.32617 C 1020.2545 204.56708 1016.7672 202.21259 1013.8145 199.25977 C 1010.8617 196.24418 1008.5052 192.72593 1006.7461 188.70508 C 1005.0498 184.68429 1004.203 180.41215 1004.2031 175.88867 C 1004.203 171.36531 1005.0498 167.09316 1006.7461 163.07227 C 1008.5052 159.05151 1010.8617 155.56421 1013.8145 152.61133 C 1016.7672 149.59579 1020.2545 147.20842 1024.2754 145.44922 C 1028.2962 143.69019 1032.6302 142.81064 1037.2793 142.81055 z "
       inkscape:label="manjaro"
       transform="matrix(0.98213834,0,0,0.98213834,-47.216738,-71.427902)" />
    <path
       id="rect1340-7"
       style="fill:#ececec;fill-rule:evenodd;stroke-width:9.09092;stroke-linecap:round;stroke-linejoin:round;paint-order:stroke fill markers"
       d="m 90.909101,72.727291 c -10.0727,0 -18.1818,8.10908 -18.1818,18.18184 V 254.5455 c 0,10.07275 8.1091,18.18183 18.1818,18.18183 H 127.2728 V 127.27272 h 72.72723 V 72.727291 Z m 127.272769,0 V 272.72733 h 36.36367 c 10.07267,0 18.18175,-8.10908 18.18175,-18.18183 V 90.909131 c 0,-10.07276 -8.10908,-18.18184 -18.18175,-18.18184 z M 145.4546,145.45455 v 127.27278 h 54.54543 V 145.45455 Z"
       inkscape:label="M"
       transform="matrix(0.98213834,0,0,0.98213834,-47.216738,-71.427902)" />
  </g>
</svg>
