<svg version="1.2" viewBox="0 0 1244.6 345.45" xmlns="http://www.w3.org/2000/svg">
 <g transform="matrix(1.0182 0 0 1.0182 48.075 72.727)" fill="#4d4d4d" stroke-width="3.5176" aria-label="®">
  <path d="m1068.1 3.5764e-4q9.6945 0 17.834 4.8472 8.2312 4.7558 12.987 12.987 4.8472 8.1397 4.8472 17.834 0 9.8774-4.8472 18.109-4.8473 8.2312-13.078 12.987-8.1397 4.6643-17.743 4.6643-9.7859 0-18.017-4.6643-8.1397-4.7558-12.987-12.895-4.7558-8.2312-4.7558-18.2 0-9.6945 4.7558-17.834 4.7558-8.2312 12.896-12.987 8.2311-4.8472 18.108-4.8472zm-0.1829 63.929q7.6825 0 14.176-3.8412 6.585-3.8412 10.335-10.335 3.8412-6.4935 3.8412-14.176 0-7.6824-3.8412-14.176-3.8412-6.4935-10.335-10.335-6.4934-3.8412-14.176-3.8412-7.6824 0-14.176 3.8412-6.4934 3.8412-10.335 10.335-3.8413 6.4935-3.8413 14.176 0 7.6824 3.7498 14.176 3.8412 6.4935 10.335 10.335 6.4935 3.8412 14.267 3.8412zm14.999-13.078q0.7317 1.2804 0.7317 2.3779 0 1.2804-0.9146 2.1035-0.9145 0.82312-2.4693 0.82312-1.0975 0-2.0121-0.45729t-1.3718-1.1889l-8.4141-14.176h-6.585v12.347q0 1.5548-1.006 2.5608-0.9146 0.91457-2.5608 0.91457t-2.6523-0.91457q-1.006-1.006-1.006-2.5608v-35.851q0-1.5548 1.0975-2.4694 1.0975-1.006 2.8352-1.006h9.0543q6.5849 0 10.792 3.7498 4.2985 3.7498 4.2985 9.603 0 3.8412-1.9206 6.9508-1.9206 3.0181-5.213 4.8472zm-21.035-16.92h6.3106q3.2925 0 5.2131-1.9206 2.012-2.0121 2.012-5.3045 0-3.2925-2.012-5.1216-1.9206-1.8291-5.2131-1.8291h-6.3106z" baseline-shift="super"/>
  <path transform="matrix(.98214 0 0 .98214 -47.217 -71.428)" d="m753.07 91.693c-3.2042 1.36e-4 -5.9376 1.131-8.1992 3.3926-2.2618 2.2618-3.3926 4.9952-3.3926 8.1992-5e-5 3.2042 1.1308 5.9376 3.3926 8.1992 2.2617 2.2618 4.9951 3.3927 8.1992 3.3926 3.204 1.2e-4 5.9374-1.1308 8.1992-3.3926 2.2617-2.2616 3.3925-4.995 3.3926-8.1992-5e-5 -3.204-1.1309-5.9374-3.3926-8.1992-2.2618-2.2616-4.9952-3.3924-8.1992-3.3926zm0 30.346c-2.7015 1.1e-4 -5.0251 0.97439-6.9727 2.9219-1.8848 1.8849-2.8282 4.2084-2.8281 6.9726v95.182c-3e-5 3.5811-0.69014 6.9408-2.0723 10.082-1.3822 3.1412-3.267 5.8747-5.6543 8.1992-2.3246 2.3874-5.058 4.2412-8.1992 5.5606-3.1413 1.3821-6.5029 2.0722-10.084 2.0723-2.8272-2e-5 -5.1836 0.91241-7.0684 2.7344-1.8219 1.8847-2.7324 4.2392-2.7324 7.0664 0 2.8271 0.91048 5.1836 2.7324 7.0684 1.8848 1.8847 4.2412 2.8281 7.0684 2.8281 6.2197-4e-5 12.094-1.2256 17.623-3.6758 5.5286-2.3874 10.365-5.6543 14.512-9.8008 4.1464-4.1465 7.4134-8.985 9.8008-14.514 2.4502-5.5286 3.6757-11.401 3.6758-17.621v-95.182c-6e-5 -2.7642-0.97434-5.0878-2.9219-6.9726-1.8848-1.9475-4.1775-2.9218-6.8789-2.9219zm-415.99 1.0762c-2.7015 1e-4 -5.0251 0.97439-6.9727 2.9219-1.8848 1.8849-2.8281 4.1775-2.8281 6.8789v85.852c-1e-5 2.7643 0.94334 5.1188 2.8281 7.0664 1.9476 1.8848 4.304 2.8281 7.0684 2.8281 2.7015 0 4.9941-0.94337 6.8789-2.8281 1.9476-1.9476 2.9218-4.3021 2.9219-7.0664v-53.623c-2e-5 -3.0784 0.56443-5.9684 1.6953-8.6699 1.1936-2.7014 2.7962-5.0559 4.8066-7.0664 2.0732-2.0732 4.4606-3.6757 7.1621-4.8066 2.7014-1.1936 5.5914-1.7909 8.6699-1.791 3.0784 9e-5 5.9684 0.59741 8.6699 1.791 2.7014 1.1938 5.0579 2.7963 7.0684 4.8066 2.0104 2.0105 3.6109 4.365 4.8047 7.0664 1.1936 2.7016 1.7909 5.5915 1.791 8.6699v53.623c-7e-5 2.7643 0.94329 5.1188 2.8281 7.0664 1.9475 1.8848 4.302 2.8281 7.0664 2.8281 2.7014 0 4.996-0.94337 6.8809-2.8281 1.9475-1.9476 2.9198-4.3021 2.9199-7.0664v-53.623c-9e-5 -3.0784 0.56632-5.9684 1.6973-8.6699 1.1936-2.7014 2.7961-5.0559 4.8066-7.0664 2.0731-2.0103 4.4605-3.6129 7.1621-4.8066 2.7014-1.1936 5.5914-1.7909 8.6699-1.791 3.1412 9e-5 6.0621 0.59741 8.7637 1.791 2.7642 1.1938 5.1516 2.8272 7.1621 4.9004 2.0103 2.0105 3.5799 4.367 4.7109 7.0684 1.1935 2.7016 1.7909 5.5587 1.791 8.5742v53.623c-1.3e-4 2.7643 0.94322 5.1188 2.8281 7.0664 1.8846 1.8848 4.2082 2.8281 6.9727 2.8281 2.7013 0 4.994-0.94337 6.8789-2.8281 1.9474-1.9476 2.9217-4.3021 2.9219-7.0664v-53.623c-1.6e-4 -5.717-1.131-11.12-3.3926-16.209-2.199-5.1516-5.2147-9.6112-9.0469-13.381-3.7697-3.8323-8.2293-6.8479-13.381-9.0469-5.089-2.2616-10.492-3.3925-16.209-3.3926-12.691 1e-4 -23.404 4.9952-32.137 14.984-4.1466-5.026-8.9832-8.7646-14.512-11.215-5.5287-2.5129-11.434-3.7694-17.717-3.7695-8.5443 1e-4 -16.178 2.2309-22.9 6.6914-0.62828-2.0103-1.7901-3.6129-3.4863-4.8066-1.6963-1.2564-3.6449-1.8847-5.8438-1.8848zm209.58 0c-14.576 1e-4 -27.015 5.1518-37.318 15.455-10.303 10.303-15.455 22.743-15.455 37.318-1e-5 14.576 5.1517 27.015 15.455 37.318 10.303 10.303 22.743 15.455 37.318 15.455 6.2825 0 12.188-1.0052 17.717-3.0156 5.5286-2.0104 10.649-4.9004 15.361-8.6699v1.8848c-9e-5 2.7015 0.94132 5.0251 2.8262 6.9726 1.9475 1.8848 4.304 2.8281 7.0684 2.8281 2.7014 0 4.994-0.94337 6.8789-2.8281 1.9475-1.9476 2.9218-4.2712 2.9219-6.9726v-42.973c-1.1e-4 -14.575-5.1518-27.015-15.455-37.318-10.429-10.303-22.869-15.455-37.318-15.455zm80.85 0c-2.7643 1e-4 -5.1208 0.97439-7.0684 2.9219-1.8848 1.9477-2.8262 4.2713-2.8262 6.9727v85.758c-1e-5 2.7643 0.94139 5.1188 2.8262 7.0664 1.9476 1.8848 4.304 2.8281 7.0684 2.8281 2.7015 0 4.9941-0.94337 6.8789-2.8281 1.9476-1.9476 2.9218-4.3021 2.9219-7.0664v-46.461c-3e-5 -4.0208 0.75388-7.8212 2.2617-11.402 1.5706-3.581 3.7067-6.7222 6.4082-9.4238 2.7015-2.7014 5.8118-4.8066 9.3301-6.3144 3.581-1.5706 7.4124-2.3554 11.496-2.3555 4.0208 9e-5 7.8212 0.78492 11.402 2.3555 3.581 1.5707 6.6914 3.7068 9.3301 6.4082 2.7014 2.6388 4.8375 5.7491 6.4082 9.3301 1.5705 3.5811 2.3554 7.3816 2.3555 11.402v46.461c-8e-5 2.7643 0.94327 5.1188 2.8281 7.0664 1.9475 1.8848 4.304 2.8281 7.0684 2.8281 2.7014 0 4.994-0.94337 6.8789-2.8281 1.9475-1.9476 2.9218-4.3021 2.9219-7.0664v-46.461c-1e-4 -6.7851-1.3204-13.16-3.959-19.129-2.6388-6.0312-6.2189-11.247-10.742-15.645-4.5235-4.4605-9.77-7.9787-15.738-10.555-5.9057-2.5757-12.157-3.8632-18.754-3.8633-11.309 1e-4 -21.14 3.2361-29.496 9.707-3e-5 -2.5757-0.97431-4.8375-2.9219-6.7852-1.8848-1.9475-4.1774-2.9218-6.8789-2.9219zm206.32 0c-14.576 1e-4 -27.015 5.1518-37.318 15.455-10.303 10.303-15.455 22.743-15.455 37.318 0 14.576 5.1517 27.015 15.455 37.318 10.303 10.303 22.743 15.455 37.318 15.455 6.2825 0 12.188-1.0052 17.717-3.0156 5.5286-2.0104 10.649-4.9004 15.361-8.6699v1.8848c-1e-4 2.7015 0.94327 5.0251 2.8281 6.9726 1.9475 1.8848 4.302 2.8281 7.0664 2.8281 2.7014 0 4.996-0.94337 6.8808-2.8281 1.9475-1.9476 2.9198-4.2712 2.9199-6.9726v-42.973c-1.1e-4 -14.575-5.1518-27.015-15.455-37.318-10.429-10.303-22.869-15.455-37.318-15.455zm80.852 0c-2.7643 1e-4 -5.1208 0.97439-7.0684 2.9219-1.8848 1.8849-2.8281 4.1775-2.8281 6.8789v85.945c-1e-5 2.7015 0.94335 5.0251 2.8281 6.9726 1.9476 1.8848 4.304 2.8281 7.0684 2.8281 2.7015 0 4.9941-0.94337 6.8789-2.8281 1.9476-1.9476 2.9218-4.2712 2.9219-6.9726v-42.973c-3e-5 -4.5862 0.84665-8.8893 2.543-12.91 1.7591-4.0208 4.1155-7.5081 7.0684-10.461 3.0156-3.0156 6.5338-5.372 10.555-7.0684 4.0208-1.759 8.3238-2.6386 12.91-2.6387 4.649 9e-5 8.954 0.78492 12.912 2.3555 1.5706 0.69115 2.9527 1.0372 4.1465 1.0371 1.3821 8e-5 2.6695-0.25121 3.8633-0.7539 1.1936-0.50252 2.2297-1.1926 3.1094-2.0723 0.87947-0.94229 1.5715-2.0113 2.0742-3.2051 0.56535-1.1936 0.84757-2.481 0.84766-3.8633-9e-5 -2.7014-0.87964-4.9013-2.6387-6.5976-1.7592-1.6962-3.99-3.0145-6.6914-3.957-2.6388-1.0051-5.5596-1.6972-8.7637-2.0742-3.1413-0.37685-6.0951-0.56435-8.8594-0.56446-6.2826 1.1e-4 -12.188 1.0053-17.717 3.0156-5.5287 2.0105-10.648 4.9005-15.359 8.6699v-1.8848c-3e-5 -2.7014-0.9743-4.994-2.9219-6.8789-1.8848-1.9475-4.1774-2.9218-6.8789-2.9219zm122.6 0c-14.576 1e-4 -27.015 5.1518-37.318 15.455-10.303 10.303-15.455 22.743-15.455 37.318 0 14.576 5.1516 27.015 15.455 37.318 10.303 10.303 22.743 15.455 37.318 15.455 14.45 0 26.889-5.1517 37.318-15.455 10.303-10.178 15.455-22.617 15.455-37.318-0.063-7.2877-1.3813-14.042-3.957-20.262-2.5132-6.2196-6.3464-11.905-11.498-17.057-10.429-10.303-22.869-15.455-37.318-15.455zm-490.62 19.695c4.5862 9e-5 8.8893 0.87964 12.91 2.6387 4.0208 1.7592 7.5081 4.1466 10.461 7.1621 3.0155 3.0157 5.372 6.5339 7.0684 10.555 1.759 3.9581 2.6386 8.1993 2.6387 12.723-9e-5 4.5235-0.87965 8.7956-2.6387 12.816-1.6964 3.958-4.0528 7.4434-7.0684 10.459-2.9529 3.0157-6.4402 5.403-10.461 7.1621-4.0209 1.7591-8.324 2.6406-12.91 2.6406-4.6491 2e-5 -8.9851-0.88149-13.006-2.6406-4.0209-1.7591-7.5062-4.1136-10.459-7.0664-2.9528-3.0156-5.3093-6.5338-7.0684-10.555-1.6963-4.0208-2.545-8.2929-2.5449-12.816-3e-5 -4.5234 0.84861-8.7955 2.5449-12.816 1.7591-4.0208 4.1155-7.5081 7.0684-10.461 2.9528-3.0155 6.4381-5.4029 10.459-7.1621 4.0208-1.759 8.3567-2.6386 13.006-2.6387zm287.17 0c4.5862 9e-5 8.8912 0.87964 12.912 2.6387 4.0207 1.7592 7.5061 4.1466 10.459 7.1621 3.0155 3.0157 5.372 6.5339 7.0684 10.555 1.759 3.9581 2.6386 8.1993 2.6387 12.723-1e-4 4.5235-0.87965 8.7956-2.6387 12.816-1.6964 3.958-4.0528 7.4434-7.0684 10.459-2.9529 3.0157-6.4382 5.403-10.459 7.1621-4.0209 1.7591-8.3259 2.6406-12.912 2.6406-4.6491 2e-5 -8.9831-0.88149-13.004-2.6406-4.0209-1.7591-7.5082-4.1136-10.461-7.0664-2.9528-3.0156-5.3093-6.5338-7.0684-10.555-1.6963-4.0208-2.543-8.2929-2.543-12.816-2e-5 -4.5234 0.84665-8.7955 2.543-12.816 1.7591-4.0208 4.1155-7.5081 7.0684-10.461 2.9528-3.0155 6.4401-5.4029 10.461-7.1621 4.0208-1.759 8.3548-2.6386 13.004-2.6387zm203.46 0c4.5862 9e-5 8.8912 0.87964 12.912 2.6387 4.0208 1.7592 7.5061 4.1466 10.459 7.1621 3.0155 3.0157 5.372 6.5339 7.0684 10.555 1.7589 3.9581 2.6385 8.1993 2.6386 12.723-1e-4 4.5235-0.8797 8.7956-2.6386 12.816-1.6964 3.958-4.0529 7.4434-7.0684 10.459-2.9529 3.0157-6.4382 5.403-10.459 7.1621-4.0209 1.7591-8.3259 2.6406-12.912 2.6406-4.6491 2e-5 -8.9831-0.88149-13.004-2.6406-4.0209-1.7591-7.5082-4.1136-10.461-7.0664-2.9528-3.0156-5.3093-6.5338-7.0684-10.555-1.6963-4.0208-2.5431-8.2929-2.543-12.816-1e-4 -4.5234 0.8467-8.7955 2.543-12.816 1.7591-4.0208 4.1156-7.5081 7.0684-10.461 2.9527-3.0155 6.44-5.4029 10.461-7.1621 4.0208-1.759 8.3548-2.6386 13.004-2.6387z"/>
  <path transform="matrix(.98214 0 0 .98214 -47.217 -71.428)" d="m90.909 72.727c-10.073 0-18.182 8.1091-18.182 18.182v163.64c0 10.073 8.1091 18.182 18.182 18.182h36.364v-145.45h72.727v-54.545zm127.27 0v200h36.364c10.073 0 18.182-8.1091 18.182-18.182v-163.64c0-10.073-8.1091-18.182-18.182-18.182zm-72.727 72.727v127.27h54.545v-127.27z" fill-rule="evenodd" stroke-linecap="round" stroke-linejoin="round" stroke-width="9.0909" style="paint-order:stroke fill markers"/>
 </g>
</svg>
