<?xml version="1.0" encoding="UTF-8" standalone="no"?>
<svg
   version="1.2"
   viewBox="0 0 1244.6 345.45"
   id="svg10"
   sodipodi:docname="logo-light.svg"
   inkscape:version="1.2.1 (9c6d41e410, 2022-07-14, custom)"
   xmlns:inkscape="http://www.inkscape.org/namespaces/inkscape"
   xmlns:sodipodi="http://sodipodi.sourceforge.net/DTD/sodipodi-0.dtd"
   xmlns="http://www.w3.org/2000/svg"
   xmlns:svg="http://www.w3.org/2000/svg">
  <defs
     id="defs14" />
  <sodipodi:namedview
     id="namedview12"
     pagecolor="#ffffff"
     bordercolor="#cccccc"
     borderopacity="1"
     inkscape:showpageshadow="0"
     inkscape:pageopacity="1"
     inkscape:pagecheckerboard="0"
     inkscape:deskcolor="#d1d1d1"
     showgrid="false"
     inkscape:zoom="0.68316686"
     inkscape:cx="624.29843"
     inkscape:cy="173.45689"
     inkscape:window-width="1503"
     inkscape:window-height="933"
     inkscape:window-x="0"
     inkscape:window-y="0"
     inkscape:window-maximized="1"
     inkscape:current-layer="svg10" />
  <path
     d="m 1135.6144,72.727364 q 9.871,0 18.1586,4.935419 8.381,4.842356 13.2234,13.223364 4.9354,8.287842 4.9354,18.158583 0,10.05716 -4.9354,18.43858 -4.9356,8.38101 -13.3161,13.22336 -8.2878,4.74919 -18.0659,4.74919 -9.964,0 -18.3449,-4.74919 -8.2878,-4.84235 -13.2234,-13.12969 -4.8423,-8.381 -4.8423,-18.53124 0,-9.870936 4.8423,-18.158575 4.8424,-8.381008 13.1308,-13.223364 8.3809,-4.935419 18.4375,-4.935419 z m -0.1862,65.092506 q 7.8223,0 14.434,-3.91111 6.7048,-3.91111 10.5231,-10.52309 3.9111,-6.61169 3.9111,-14.43401 0,-7.82222 -3.9111,-14.434001 -3.9111,-6.611682 -10.5231,-10.523097 -6.6116,-3.91111 -14.434,-3.91111 -7.8222,0 -14.434,3.91111 -6.6116,3.91111 -10.5231,10.523097 -3.9112,6.611681 -3.9112,14.434001 0,7.82222 3.818,14.43401 3.9111,6.61168 10.5231,10.52309 6.6117,3.91111 14.5267,3.91111 z m 15.272,-13.31602 q 0.745,1.30371 0.745,2.42118 0,1.3037 -0.9313,2.14178 -0.9311,0.8381 -2.5142,0.8381 -1.1175,0 -2.0487,-0.46561 -0.9313,-0.46561 -1.3968,-1.21054 l -8.5672,-14.434 h -6.7049 v 12.57172 q 0,1.58309 -1.0243,2.6074 -0.9312,0.93122 -2.6074,0.93122 -1.6761,0 -2.7006,-0.93122 -1.0243,-1.02431 -1.0243,-2.6074 V 89.862988 q 0,-1.583097 1.1175,-2.514343 1.1175,-1.024309 2.8868,-1.024309 h 9.2191 q 6.7047,0 10.9884,3.818046 4.3767,3.818047 4.3767,9.777775 0,3.911113 -1.9555,7.077303 -1.9556,3.07303 -5.3079,4.93542 z m -21.4179,-17.22794 h 6.4255 q 3.3524,0 5.308,-1.95556 2.0486,-2.04872 2.0486,-5.401038 0,-3.352424 -2.0486,-5.214813 -1.9556,-1.86239 -5.308,-1.86239 h -6.4255 z"
     baseline-shift="super"
     fill="#eeeeee"
     id="path2"
     style="stroke-width:3.58162;fill:#333333;fill-opacity:1" />
  <path
     d="m 753.07987,91.693377 c -3.20425,1.36e-4 -5.93769,1.131016 -8.19932,3.39265 -2.26183,2.261834 -3.39265,4.995273 -3.39265,8.199323 -5e-5,3.20425 1.13082,5.93769 3.39265,8.19932 2.26173,2.26184 4.99517,3.39275 8.19932,3.39265 3.20405,1.2e-4 5.93749,-1.13081 8.19932,-3.39265 2.26174,-2.26163 3.39255,-4.99507 3.39265,-8.19932 -5e-5,-3.20405 -1.13091,-5.937489 -3.39265,-8.199323 -2.26183,-2.261634 -4.99527,-3.39245 -8.19932,-3.39265 z m 0,30.346453 c -2.70154,1.1e-4 -5.02517,0.9744 -6.9728,2.92194 -1.88483,1.88493 -2.82824,4.20847 -2.82814,6.97271 v 95.18341 c -3e-5,3.58116 -0.69015,6.94091 -2.07234,10.08215 -1.38222,3.14125 -3.26704,5.87479 -5.65438,8.19933 -2.32463,2.38743 -5.05808,4.24126 -8.19932,5.56068 -3.14135,1.38212 -6.503,2.07223 -10.08415,2.07233 -2.82724,-2e-5 -5.18368,0.91242 -7.06851,2.73444 -1.82192,1.88473 -2.73244,4.23926 -2.73244,7.06651 0,2.82714 0.9105,5.18367 2.73244,7.0685 1.88483,1.88473 4.24127,2.82814 7.06851,2.82814 6.21979,-4e-5 12.09418,-1.22561 17.62326,-3.67585 5.52868,-2.38744 10.36515,-5.65438 14.51222,-9.80095 4.14646,-4.14656 7.41351,-8.98513 9.80094,-14.51421 2.45024,-5.52869 3.67576,-11.40117 3.67586,-17.62127 v -95.18341 c -6e-5,-2.76424 -0.97436,-5.08788 -2.92195,-6.97271 -1.88482,-1.94753 -4.17756,-2.92184 -6.879,-2.92194 z m -415.9962,1.07621 c -2.70154,1e-4 -5.02517,0.97441 -6.9728,2.92195 -1.88483,1.88493 -2.82814,4.17756 -2.82814,6.879 v 85.85328 c -1e-5,2.76434 0.94335,5.11888 2.82814,7.06651 1.94763,1.88482 4.30406,2.82814 7.0685,2.82814 2.70154,0 4.99418,-0.94339 6.87901,-2.82814 1.94763,-1.94763 2.92184,-4.30217 2.92194,-7.06651 v -53.6238 c -2e-5,-3.07844 0.56444,-5.96849 1.69533,-8.67003 1.19361,-2.70144 2.79624,-5.05597 4.80667,-7.0665 2.07323,-2.07323 4.46066,-3.67576 7.1622,-4.80668 2.70144,-1.19361 5.59149,-1.79092 8.67003,-1.79102 3.07845,9e-5 5.96849,0.59742 8.67003,1.79102 2.70144,1.19382 5.05798,2.79635 7.06851,4.80668 2.01043,2.01053 3.61095,4.36506 4.80477,7.0665 1.19362,2.70164 1.79093,5.59159 1.79103,8.67003 v 53.6238 c -7e-5,2.76434 0.9433,5.11888 2.82814,7.06651 1.94753,1.88482 4.30206,2.82814 7.0665,2.82814 2.70144,0 4.99608,-0.94339 6.88101,-2.82814 1.94753,-1.94763 2.91984,-4.30217 2.91994,-7.06651 v -53.6238 c -9e-5,-3.07844 0.56633,-5.96849 1.69732,-8.67003 1.19362,-2.70144 2.79615,-5.05597 4.80668,-7.0665 2.07313,-2.01033 4.46056,-3.61296 7.1622,-4.80668 2.70144,-1.19361 5.59149,-1.79092 8.67003,-1.79102 3.14125,9e-5 6.06219,0.59742 8.76383,1.79102 2.76424,1.19382 5.15168,2.82725 7.16221,4.90048 2.01033,2.01053 3.57995,4.36706 4.71097,7.0685 1.19352,2.70164 1.79093,5.55879 1.79103,8.57433 v 53.6238 c -1.3e-4,2.76434 0.94323,5.11888 2.82814,7.06651 1.88463,1.88482 4.20826,2.82814 6.9728,2.82814 2.70134,0 4.99408,-0.94339 6.87901,-2.82814 1.94742,-1.94763 2.92174,-4.30217 2.92194,-7.06651 v -53.6238 c -1.6e-4,-5.71708 -1.13102,-11.12016 -3.39265,-16.20924 -2.19903,-5.15168 -5.21478,-9.61134 -9.04704,-13.3812 -3.76975,-3.83236 -8.22942,-6.848 -13.3812,-9.04703 -5.08907,-2.26164 -10.49215,-3.39256 -16.20924,-3.39266 -12.69119,1e-4 -23.40435,4.99528 -32.13748,14.98423 -4.14666,-5.02608 -8.98333,-8.76473 -14.51221,-11.21517 -5.52879,-2.51294 -11.43417,-3.76946 -17.71727,-3.76956 -8.54442,1e-4 -16.17824,2.23094 -22.90034,6.6915 -0.62829,-2.01033 -1.79012,-3.61295 -3.48635,-4.80667 -1.69633,-1.25642 -3.64495,-1.88473 -5.84389,-1.88483 z m 209.58313,0 c -14.57622,1e-4 -27.01541,5.15188 -37.31856,15.45524 -10.30315,10.30315 -15.45523,22.74333 -15.45523,37.31855 -1e-5,14.57622 5.15178,27.0154 15.45523,37.31856 10.30315,10.30315 22.74334,15.45523 37.31856,15.45523 6.28259,0 12.18818,-1.00522 17.71726,-3.01565 5.52868,-2.01043 10.64916,-4.90047 15.36123,-8.67003 v 1.88483 c -9e-5,2.70154 0.94133,5.02518 2.82624,6.97271 1.94753,1.88482 4.30406,2.82814 7.06851,2.82814 2.70144,0 4.99407,-0.94339 6.879,-2.82814 1.94753,-1.94763 2.92184,-4.27127 2.92194,-6.97271 v -42.97364 c -1.1e-4,-14.57522 -5.15187,-27.0154 -15.45523,-37.31855 -10.42915,-10.30316 -22.86934,-15.45524 -37.31855,-15.45524 z m 80.8512,0 c -2.76434,1e-4 -5.12088,0.97441 -7.0685,2.92195 -1.88483,1.94773 -2.82625,4.27136 -2.82625,6.9728 v 85.75928 c -10e-6,2.76434 0.94141,5.11888 2.82625,7.06651 1.94762,1.88482 4.30406,2.82814 7.0685,2.82814 2.70154,0 4.99417,-0.94339 6.879,-2.82814 1.94763,-1.94763 2.92185,-4.30217 2.92195,-7.06651 v -46.46169 c -3e-5,-4.02086 0.75389,-7.82132 2.26173,-11.40217 1.57062,-3.58106 3.70676,-6.7223 6.4083,-9.42394 2.70154,-2.70144 5.81188,-4.80667 9.33023,-6.3145 3.58106,-1.57062 7.41252,-2.35543 11.49618,-2.35553 4.02086,9e-5 7.82131,0.78493 11.40217,2.35553 3.58105,1.57073 6.6915,3.70686 9.33023,6.4083 2.70145,2.63884 4.83758,5.74918 6.4083,9.33024 1.57052,3.58115 2.35544,7.38171 2.35554,11.40217 v 46.46169 c -8e-5,2.76434 0.94328,5.11888 2.82814,7.06651 1.94753,1.88482 4.30406,2.82814 7.0685,2.82814 2.70144,0 4.99408,-0.94339 6.87901,-2.82814 1.94752,-1.94763 2.92184,-4.30217 2.92194,-7.06651 v -46.46169 c -10e-5,-6.7852 -1.32042,-13.1602 -3.95906,-19.12929 -2.63884,-6.03129 -6.21899,-11.24716 -10.74216,-15.64523 -4.52357,-4.46057 -9.77015,-7.97882 -15.73823,-10.55516 -5.90579,-2.57574 -12.15719,-3.86326 -18.75428,-3.86336 -11.30917,10e-5 -21.14032,3.23615 -29.49644,9.70715 -3e-5,-2.57574 -0.97433,-4.83757 -2.92195,-6.7853 -1.88483,-1.94753 -4.17746,-2.92185 -6.879,-2.92195 z m 206.32307,0 c -14.57621,1e-4 -27.0154,5.15188 -37.31855,15.45524 -10.30315,10.30315 -15.45523,22.74333 -15.45523,37.31855 0,14.57622 5.15178,27.0154 15.45523,37.31856 10.30315,10.30315 22.74334,15.45523 37.31855,15.45523 6.2826,0 12.18819,-1.00522 17.71727,-3.01565 5.52868,-2.01043 10.64916,-4.90047 15.36123,-8.67003 v 1.88483 c -10e-5,2.70154 0.94328,5.02518 2.82814,6.97271 1.94753,1.88482 4.30206,2.82814 7.0665,2.82814 2.70145,0 4.99608,-0.94339 6.88091,-2.82814 1.94753,-1.94763 2.91984,-4.27127 2.91994,-6.97271 v -42.97364 c -1.1e-4,-14.57522 -5.15188,-27.0154 -15.45523,-37.31855 -10.42915,-10.30316 -22.86934,-15.45524 -37.31856,-15.45524 z m 80.85321,0 c -2.76434,1e-4 -5.12088,0.97441 -7.06851,2.92195 -1.88482,1.88493 -2.82814,4.17756 -2.82814,6.879 v 85.94628 c -10e-6,2.70154 0.94337,5.02518 2.82814,6.97271 1.94763,1.88482 4.30407,2.82814 7.06851,2.82814 2.70154,0 4.99417,-0.94339 6.879,-2.82814 1.94763,-1.94763 2.92185,-4.27127 2.92195,-6.97271 v -42.97364 c -3e-5,-4.58627 0.84666,-8.88943 2.54303,-12.91019 1.75913,-4.02086 4.11556,-7.50821 7.06851,-10.46116 3.01564,-3.01564 6.5339,-5.37208 10.55516,-7.0685 4.02086,-1.75903 8.32392,-2.63864 12.91019,-2.63874 4.64907,9e-5 8.95413,0.78493 12.91219,2.35553 1.57062,0.69116 2.95274,1.03722 4.14656,1.03712 1.38212,8e-5 2.66954,-0.25121 3.86336,-0.75391 1.19362,-0.50253 2.22973,-1.19262 3.10945,-2.07233 0.87948,-0.94231 1.57152,-2.01133 2.07423,-3.20515 0.56536,-1.19362 0.84758,-2.48104 0.84767,-3.86336 -9e-5,-2.70144 -0.87965,-4.90137 -2.63874,-6.5977 -1.75923,-1.69622 -3.99006,-3.01454 -6.6915,-3.95706 -2.63884,-1.00511 -5.55968,-1.69722 -8.76383,-2.07423 -3.14135,-0.37685 -6.09519,-0.56436 -8.85953,-0.56447 -6.2827,1.1e-4 -12.18818,1.00532 -17.71727,3.01565 -5.52878,2.01053 -10.64815,4.90057 -15.35922,8.67003 v -1.88483 c -3e-5,-2.70144 -0.97432,-4.99407 -2.92195,-6.879 -1.88483,-1.94753 -4.17746,-2.92185 -6.879,-2.92195 z m 122.60182,0 c -14.5762,1e-4 -27.0154,5.15188 -37.31855,15.45524 -10.30315,10.30315 -15.45523,22.74333 -15.45523,37.31855 0,14.57622 5.15168,27.0154 15.45523,37.31856 10.30315,10.30315 22.74335,15.45523 37.31855,15.45523 14.4502,0 26.8894,-5.15178 37.3186,-15.45523 10.3031,-10.17815 15.4552,-22.61734 15.4552,-37.31856 -0.063,-7.28781 -1.3813,-14.04221 -3.9571,-20.2623 -2.5132,-6.21969 -6.3465,-11.90518 -11.4981,-17.05725 -10.4292,-10.30316 -22.8694,-15.45524 -37.3186,-15.45524 z m -490.6273,19.6953 c 4.58626,9e-5 8.88943,0.87965 12.91019,2.63874 4.02086,1.75922 7.50821,4.14666 10.46115,7.1622 3.01555,3.01575 5.37208,6.534 7.06851,10.55516 1.75903,3.95816 2.63864,8.19942 2.63874,12.72319 -9e-5,4.52357 -0.87966,8.79573 -2.63874,12.81619 -1.69643,3.95806 -4.05286,7.44351 -7.06851,10.45916 -2.95294,3.01574 -6.44029,5.40308 -10.46115,7.1622 -4.02096,1.75913 -8.32413,2.64064 -12.91019,2.64064 -4.64917,2e-5 -8.98524,-0.8815 -13.0062,-2.64064 -4.02096,-1.75912 -7.50631,-4.11366 -10.45915,-7.0665 -2.95285,-3.01565 -5.30938,-6.5339 -7.06851,-10.55516 -1.69632,-4.02086 -2.54504,-8.29302 -2.54494,-12.81619 -3e-5,-4.52347 0.84863,-8.79563 2.54494,-12.81619 1.75913,-4.02086 4.11556,-7.50821 7.06851,-10.46116 2.95284,-3.01554 6.43819,-5.40298 10.45915,-7.1622 4.02086,-1.75903 8.35683,-2.63864 13.0062,-2.63874 z m 287.17427,0 c 4.58627,9e-5 8.89134,0.87965 12.9122,2.63874 4.02076,1.75922 7.50621,4.14666 10.45915,7.1622 3.01555,3.01575 5.37208,6.534 7.06851,10.55516 1.75902,3.95816 2.63864,8.19942 2.63874,12.72319 -10e-5,4.52357 -0.87967,8.79573 -2.63874,12.81619 -1.69643,3.95806 -4.05286,7.44351 -7.06851,10.45916 -2.95294,3.01574 -6.43829,5.40308 -10.45915,7.1622 -4.02096,1.75913 -8.32603,2.64064 -12.9122,2.64064 -4.64916,2e-5 -8.98323,-0.8815 -13.00419,-2.64064 -4.02096,-1.75912 -7.50831,-4.11366 -10.46115,-7.0665 -2.95285,-3.01565 -5.30938,-6.5339 -7.06851,-10.55516 -1.69633,-4.02086 -2.54304,-8.29302 -2.54304,-12.81619 -2e-5,-4.52347 0.84666,-8.79563 2.54304,-12.81619 1.75913,-4.02086 4.11556,-7.50821 7.06851,-10.46116 2.95284,-3.01554 6.44019,-5.40298 10.46115,-7.1622 4.02086,-1.75903 8.35493,-2.63864 13.00419,-2.63874 z m 203.46303,0 c 4.5863,9e-5 8.8913,0.87965 12.9122,2.63874 4.0209,1.75922 7.5062,4.14666 10.4592,7.1622 3.0155,3.01575 5.372,6.534 7.0685,10.55516 1.7589,3.95816 2.6385,8.19942 2.6386,12.72319 -1e-4,4.52357 -0.8797,8.79573 -2.6386,12.81619 -1.6965,3.95806 -4.053,7.44351 -7.0685,10.45916 -2.953,3.01574 -6.4383,5.40308 -10.4592,7.1622 -4.021,1.75913 -8.326,2.64064 -12.9122,2.64064 -4.6492,2e-5 -8.9832,-0.8815 -13.0042,-2.64064 -4.0209,-1.75912 -7.5083,-4.11366 -10.4611,-7.0665 -2.9529,-3.01565 -5.3094,-6.5339 -7.0685,-10.55516 -1.6964,-4.02086 -2.5432,-8.29302 -2.5431,-12.81619 -10e-5,-4.52347 0.8467,-8.79563 2.5431,-12.81619 1.7591,-4.02086 4.1156,-7.50821 7.0685,-10.46116 2.9527,-3.01554 6.4401,-5.40298 10.4611,-7.1622 4.0209,-1.75903 8.3549,-2.63864 13.0042,-2.63874 z"
     fill="#eeeeee"
     id="path4"
     style="stroke-width:3.51765;fill:#333333;fill-opacity:1" />
  <path
     d="m 90.909005,72.727094 c -10.07315,0 -18.182271,8.109221 -18.182271,18.182271 V 254.5518 c 0,10.07315 8.109221,18.18227 18.182271,18.18227 H 127.27355 V 127.28191 h 72.72808 V 72.736094 Z m 127.271895,0 V 272.73007 h 36.36454 c 10.07315,0 18.18227,-8.10922 18.18227,-18.18227 V 90.905365 c 0,-10.07315 -8.10922,-18.182271 -18.18227,-18.182271 z m -72.72808,72.728086 v 127.27189 h 54.54581 V 145.45518 Z"
     fill="#69f0ae"
     fill-rule="evenodd"
     stroke-linecap="round"
     stroke-linejoin="round"
     stroke-width="9.09104"
     style="paint-order:stroke fill markers;fill:#35bfa4"
     id="path6" />
</svg>
