<svg version="1.1" viewBox="0 0 32 32" xmlns="http://www.w3.org/2000/svg">
 <g>
  <rect transform="rotate(-29.668)" x="-8.729" y="15.358" width="27.416" height="16.442" rx="2.0375" ry="2.0375" fill-rule="evenodd" opacity=".2" style="paint-order:stroke fill markers"/>
  <path d="m0.81981 17.703 23.32-13.321 5.8278 10.202-23.32 13.321z" fill="#027724" stroke-width="1.6785"/>
  <path d="m7.3483 2.376c-0.68899 0.42166-0.82607 1.1901-0.99744 1.6106l-5.531 13.717 23.32-13.321-14.625-2.2033c-0.4492-0.065968-1.1808-0.33823-1.894 0.041072-0.044579 0.02359-0.088771 0.0547-0.13296 0.08369-0.047512 0.023416-0.096585 0.045752-0.13962 0.072075z" fill="#1a8e3c" stroke-width="1.6785"/>
 </g>
 <rect x="3.2402" y="5.472" width="16.356" height="16.356" rx="1.7685" ry="1.7685" fill="#fff" stroke-width="2.0445"/>
 <g>
  <path d="m6.0366 7.3715c-0.49663 0-0.89691 0.40028-0.89691 0.89692v10.763c0 0.49663 0.40028 0.89692 0.89691 0.89692h2.6907v-8.9692h4.4846v-3.5877zm8.0722 0v12.557h2.6907c0.49663 0 0.89692-0.40028 0.89692-0.89692v-10.763c0-0.49663-0.40028-0.89692-0.89692-0.89692zm-4.4846 4.4846v8.0722h3.5877v-8.0722z" fill="#3fb361"/>
  <g stroke-width="1.6785">
   <path d="m0.82014 17.704 6.5157 11.407c0.18246 0.31942 0.44009 0.56529 0.7367 0.73449l5.6371-9.9668zm7.2523 12.141c0.072822 0.04153 0.14774 0.07765 0.22484 0.1094-0.077196-0.03179-0.15188-0.06786-0.22484-0.1094zm0.22484 0.1094c0.03954 0.01629 0.0783 0.03558 0.11873 0.04922 0.01267 0.0044 0.02688 0.0013 0.03986 0.0036-0.05246-0.01667-0.10763-0.0318-0.15857-0.0529z" fill="#0c802e"/>
   <path d="m24.14 4.3832-4.6745 12.207 11.449 0.20717c4e-3 -0.34144-0.07601-0.68825-0.25846-1.0077l-5.5384-9.6957zm6.7741 12.414c-7.74e-4 0.08405-0.0067 0.16659-0.02014 0.24921 0.01387-0.08233 0.0192-0.16535 0.02014-0.24921zm-0.02014 0.24921c-0.0067 0.05446-0.024 0.10957-0.03454 0.1636 4e-3 -0.0124 0.0148-0.02338 0.01693-0.03622 0.0093-0.04166 0.0144-0.08464 0.01734-0.12734z" fill="#2b9f4d"/>
   <path d="m15.678 16.948c-0.66974 0.40269-0.87712 1.0154-1.0779 1.3611l-6.5266 11.536c0.58379 0.33262 1.3195 0.35841 1.9454 8.64e-4l19.907-11.371c0.62589-0.35753 0.97735-1.0043 0.9874-1.6761l-13.252-0.23788c-0.39973-0.0027-1.0328-0.13529-1.7199 0.23708-0.04291 0.02316-0.08636 0.05205-0.12948 0.07958-0.04548 0.02346-0.0925 0.04607-0.13434 0.07111z" fill="#1a8e3c"/>
  </g>
 </g>
 <path d="m5.0084 5.4725c-0.97973 0-1.7684 0.78871-1.7684 1.7684v2.0002h16.356v-2.0002c0-0.97973-0.78871-1.7684-1.7684-1.7684z" opacity=".2" stroke-width="2.0445"/>
</svg>
