<svg version="1.1" viewBox="0 0 16 16" xmlns="http://www.w3.org/2000/svg">
 <defs>
  <style type="text/css">.ColorScheme-Text { color:#dfdfdf; } .ColorScheme-Highlight { color:#4285f4; } .ColorScheme-NeutralText { color:#ff9800; } .ColorScheme-PositiveText { color:#4caf50; } .ColorScheme-NegativeText { color:#f44336; }</style>
 </defs>
 <path class="ColorScheme-Text" d="m3.037 0.9703c-0.55399-0.0030941-0.82774 0.47078-1.0056 0.9944l-1.0167 2.9944-0.04468 7.9999c-0.003094 0.55399 0.44041 1.0025 0.9944 1.0056l12 0.06702c0.55399 0.0031 1.0025-0.44041 1.0056-0.9944l0.044679-7.9999-0.98323-3.0055c-0.17206-0.52657-0.44041-1.0025-0.9944-1.0056zm0.65872 2.0037 8.66 0.048366 0.32841 1.0018-9.3299-0.052108zm3.3133 3.0186 2 0.01117-0.016755 3 1.75 0.00977-2.7667 2.9846-2.7332-3.0153 1.75 0.00977z" fill="#004d40"/>
 <rect x="3.14" y="5.3978" width="9.7199" height="7.2029" fill="#004d40"/>
</svg>
