<svg version="1.1" viewBox="0 0 16 16" xmlns="http://www.w3.org/2000/svg">
 <defs>
  <style type="text/css">.ColorScheme-Text { color:#6e6e6e; } .ColorScheme-Highlight { color:#4285f4; } .ColorScheme-NeutralText { color:#ff9800; } .ColorScheme-PositiveText { color:#4caf50; } .ColorScheme-NegativeText { color:#f44336; }</style>
 </defs>
 <path class="ColorScheme-Text" d="m3 1c-0.554 0-0.8251 0.4754-1 1l-1 3v8c0 0.554 0.446 1 1 1h12c0.554 0 1-0.446 1-1v-8l-1-3c-0.175-0.5256-0.446-1-1-1h-10zm0.66992 2h8.6602l0.33398 1h-9.3301l0.33594-1z" fill="#b0bec5"/>
 <path d="m9.0049 7.6436c-0.2751 0-0.49656 0.22146-0.49656 0.49656v4.4691c0 0.2751 0.22146 0.49656 0.49656 0.49656h0.99312v-3.9723h1.9862v-1.4897zm3.4758 0v5.4621h0.99312c0.2751 0 0.49656-0.22146 0.49656-0.49656v-4.4691c0-0.2751-0.22146-0.49656-0.49656-0.49656zm-1.9862 1.9862v3.4758h1.4897v-3.4758z" fill="#455a64" fill-rule="evenodd" stroke-linecap="round" stroke-linejoin="round" stroke-width=".24828" style="paint-order:stroke fill markers"/>
</svg>
