<?xml version="1.0" encoding="UTF-8" standalone="no"?>
<svg
   version="1.0"
   width="700.000000pt"
   height="700.000000pt"
   viewBox="0 0 700.000000 700.000000"
   preserveAspectRatio="xMidYMid meet"
   id="svg138378"
   xmlns="http://www.w3.org/2000/svg"
   xmlns:svg="http://www.w3.org/2000/svg">
  <defs
     id="defs138382" />
  <metadata
     id="metadata138368">
Created by potrace 1.14, written by Peter Selinger 2001-2017
</metadata>
  <g
     transform="translate(0.000000,700.000000) scale(0.100000,-0.100000)"
     fill="#000000"
     stroke="none"
     id="g138376">
    <path
       d="M0 3500 l0 -3500 1020 0 1020 0 0 33 c1 17 1 1131 1 2474 l0 2443 1242 2 1242 3 0 1023 0 1022 -2262 0 -2263 0 0 -3500z"
       id="path138370" />
    <path
       d="M4950 3500 l0 -3500 1025 0 1025 0 0 3500 0 3500 -1025 0 -1025 0 0 -3500z"
       id="path138372" />
    <path
       d="M2476 4520 c-1 -3 -2 -1020 -2 -2260 l1 -2255 1025 0 1024 0 1 2253 c0 1240 -2 2257 -5 2261 -6 7 -2041 9 -2044 1z"
       id="path138374" />
  </g>
</svg>
